<svg width="1474" height="851" viewBox="0 0 1474 851" fill="none" xmlns="http://www.w3.org/2000/svg">
<line x1="224.002" y1="0.5" x2="225" y2="0.5" stroke="#F5F5F5"/>
<rect x="224" y="201" width="599.999" height="300" fill="#001E59"/>
<line x1="224.498" y1="501" x2="224.498" y2="201" stroke="#F5F5F5"/>
<line x1="523.999" y1="501" x2="523.999" y2="201" stroke="#F5F5F5"/>
<line x1="823.499" y1="501" x2="823.499" y2="201" stroke="#F5F5F5"/>
<line x1="780.571" y1="501" x2="780.571" y2="201" stroke="#F5F5F5"/>
<line x1="737.642" y1="501" x2="737.642" y2="201" stroke="#F5F5F5"/>
<line x1="694.714" y1="501" x2="694.714" y2="201" stroke="#F5F5F5"/>
<line x1="652.784" y1="501" x2="652.784" y2="201" stroke="#F5F5F5"/>
<line x1="609.856" y1="501" x2="609.856" y2="201" stroke="#F5F5F5"/>
<line x1="566.927" y1="501" x2="566.927" y2="201" stroke="#F5F5F5"/>
<line x1="481.07" y1="501" x2="481.07" y2="201" stroke="#F5F5F5"/>
<line x1="438.142" y1="501" x2="438.142" y2="201" stroke="#F5F5F5"/>
<line x1="395.214" y1="501" x2="395.214" y2="201" stroke="#F5F5F5"/>
<line x1="353.284" y1="501" x2="353.284" y2="201" stroke="#F5F5F5"/>
<line x1="310.355" y1="501" x2="310.355" y2="201" stroke="#F5F5F5"/>
<line x1="267.427" y1="501" x2="267.427" y2="201" stroke="#F5F5F5"/>
<line x1="224.998" y1="243.5" x2="823.999" y2="243.5" stroke="#F5F5F5"/>
<line x1="224.998" y1="415.5" x2="821.004" y2="415.5" stroke="#F5F5F5"/>
<line x1="224.998" y1="458.5" x2="824" y2="458.5" stroke="#F5F5F5"/>
<line x1="224.998" y1="500.5" x2="823.999" y2="500.5" stroke="#F5F5F5"/>
<line x1="228.992" y1="200.5" x2="823.999" y2="200.5" stroke="#F5F5F5"/>
<line x1="224.998" y1="372.5" x2="821.004" y2="372.5" stroke="#F5F5F5"/>
<line x1="224.998" y1="329.5" x2="823.999" y2="329.5" stroke="#F5F5F5"/>
<line x1="224.998" y1="286.5" x2="821.004" y2="286.5" stroke="#F5F5F5"/>
<rect x="226" y="201" width="598" height="300" fill="#001E59"/>
<line x1="224.498" y1="501" x2="224.498" y2="201" stroke="#F5F5F5"/>
<line x1="523.999" y1="501" x2="523.999" y2="201" stroke="#F5F5F5"/>
<line x1="823.499" y1="501" x2="823.499" y2="201" stroke="#F5F5F5"/>
<line x1="780.571" y1="501" x2="780.571" y2="201" stroke="#F5F5F5"/>
<line x1="737.642" y1="501" x2="737.642" y2="201" stroke="#F5F5F5"/>
<line x1="694.714" y1="501" x2="694.714" y2="201" stroke="#F5F5F5"/>
<line x1="652.784" y1="501" x2="652.784" y2="201" stroke="#F5F5F5"/>
<line x1="609.856" y1="501" x2="609.856" y2="201" stroke="#F5F5F5"/>
<line x1="566.927" y1="501" x2="566.927" y2="201" stroke="#F5F5F5"/>
<line x1="481.07" y1="501" x2="481.07" y2="201" stroke="#F5F5F5"/>
<line x1="438.142" y1="501" x2="438.142" y2="201" stroke="#F5F5F5"/>
<line x1="395.214" y1="501" x2="395.214" y2="201" stroke="#F5F5F5"/>
<line x1="353.284" y1="501" x2="353.284" y2="201" stroke="#F5F5F5"/>
<line x1="310.355" y1="501" x2="310.355" y2="201" stroke="#F5F5F5"/>
<line x1="267.427" y1="501" x2="267.427" y2="201" stroke="#F5F5F5"/>
<line x1="224.998" y1="243.5" x2="823.999" y2="243.5" stroke="#F5F5F5"/>
<line x1="224.998" y1="415.5" x2="821.004" y2="415.5" stroke="#F5F5F5"/>
<line x1="224.998" y1="458.5" x2="824" y2="458.5" stroke="#F5F5F5"/>
<line x1="224.998" y1="500.5" x2="823.999" y2="500.5" stroke="#F5F5F5"/>
<line x1="228.992" y1="200.5" x2="823.999" y2="200.5" stroke="#F5F5F5"/>
<line x1="224.998" y1="372.5" x2="821.004" y2="372.5" stroke="#F5F5F5"/>
<line x1="224.998" y1="329.5" x2="823.999" y2="329.5" stroke="#F5F5F5"/>
<line x1="224.998" y1="286.5" x2="821.004" y2="286.5" stroke="#F5F5F5"/>
<rect x="224" y="551" width="599.999" height="300" fill="#001E59"/>
<line x1="224.498" y1="851" x2="224.498" y2="551" stroke="#F5F5F5"/>
<line x1="523.999" y1="851" x2="523.999" y2="551" stroke="#F5F5F5"/>
<line x1="823.499" y1="851" x2="823.499" y2="551" stroke="#F5F5F5"/>
<line x1="780.571" y1="851" x2="780.571" y2="551" stroke="#F5F5F5"/>
<line x1="737.642" y1="851" x2="737.642" y2="551" stroke="#F5F5F5"/>
<line x1="694.714" y1="851" x2="694.714" y2="551" stroke="#F5F5F5"/>
<line x1="652.784" y1="851" x2="652.784" y2="551" stroke="#F5F5F5"/>
<line x1="609.856" y1="851" x2="609.856" y2="551" stroke="#F5F5F5"/>
<line x1="566.927" y1="851" x2="566.927" y2="551" stroke="#F5F5F5"/>
<line x1="481.07" y1="851" x2="481.07" y2="551" stroke="#F5F5F5"/>
<line x1="438.142" y1="851" x2="438.142" y2="551" stroke="#F5F5F5"/>
<line x1="395.214" y1="851" x2="395.214" y2="551" stroke="#F5F5F5"/>
<line x1="353.284" y1="851" x2="353.284" y2="551" stroke="#F5F5F5"/>
<line x1="310.355" y1="851" x2="310.355" y2="551" stroke="#F5F5F5"/>
<line x1="267.427" y1="851" x2="267.427" y2="551" stroke="#F5F5F5"/>
<line x1="224.998" y1="593.5" x2="823.999" y2="593.5" stroke="#F5F5F5"/>
<line x1="224.998" y1="765.5" x2="821.004" y2="765.5" stroke="#F5F5F5"/>
<line x1="224.998" y1="808.5" x2="824" y2="808.5" stroke="#F5F5F5"/>
<line x1="224.998" y1="850.5" x2="823.999" y2="850.5" stroke="#F5F5F5"/>
<line x1="228.992" y1="550.5" x2="823.999" y2="550.5" stroke="#F5F5F5"/>
<line x1="224.998" y1="722.5" x2="821.004" y2="722.5" stroke="#F5F5F5"/>
<line x1="224.998" y1="679.5" x2="823.999" y2="679.5" stroke="#F5F5F5"/>
<line x1="224.998" y1="636.5" x2="821.004" y2="636.5" stroke="#F5F5F5"/>
<rect x="874" y="551" width="599.999" height="300" fill="#001E59"/>
<line x1="874.498" y1="851" x2="874.498" y2="551" stroke="#F5F5F5"/>
<line x1="1174" y1="851" x2="1174" y2="551" stroke="#F5F5F5"/>
<line x1="1473.5" y1="851" x2="1473.5" y2="551" stroke="#F5F5F5"/>
<line x1="1430.57" y1="851" x2="1430.57" y2="551" stroke="#F5F5F5"/>
<line x1="1387.64" y1="851" x2="1387.64" y2="551" stroke="#F5F5F5"/>
<line x1="1344.71" y1="851" x2="1344.71" y2="551" stroke="#F5F5F5"/>
<line x1="1302.78" y1="851" x2="1302.78" y2="551" stroke="#F5F5F5"/>
<line x1="1259.86" y1="851" x2="1259.86" y2="551" stroke="#F5F5F5"/>
<line x1="1216.93" y1="851" x2="1216.93" y2="551" stroke="#F5F5F5"/>
<line x1="1131.07" y1="851" x2="1131.07" y2="551" stroke="#F5F5F5"/>
<line x1="1088.14" y1="851" x2="1088.14" y2="551" stroke="#F5F5F5"/>
<line x1="1045.21" y1="851" x2="1045.21" y2="551" stroke="#F5F5F5"/>
<line x1="1003.28" y1="851" x2="1003.28" y2="551" stroke="#F5F5F5"/>
<line x1="960.355" y1="851" x2="960.355" y2="551" stroke="#F5F5F5"/>
<line x1="917.427" y1="851" x2="917.427" y2="551" stroke="#F5F5F5"/>
<line x1="874.998" y1="593.5" x2="1474" y2="593.5" stroke="#F5F5F5"/>
<line x1="874.998" y1="765.5" x2="1471" y2="765.5" stroke="#F5F5F5"/>
<line x1="874.998" y1="808.5" x2="1474" y2="808.5" stroke="#F5F5F5"/>
<line x1="874.998" y1="850.5" x2="1474" y2="850.5" stroke="#F5F5F5"/>
<line x1="878.992" y1="550.5" x2="1474" y2="550.5" stroke="#F5F5F5"/>
<line x1="874.998" y1="722.5" x2="1471" y2="722.5" stroke="#F5F5F5"/>
<line x1="874.998" y1="679.5" x2="1474" y2="679.5" stroke="#F5F5F5"/>
<line x1="874.998" y1="636.5" x2="1471" y2="636.5" stroke="#F5F5F5"/>
<rect x="874" y="201" width="599.999" height="300" fill="#001E59"/>
<line x1="874.498" y1="501" x2="874.498" y2="201" stroke="#F5F5F5"/>
<line x1="1174" y1="501" x2="1174" y2="201" stroke="#F5F5F5"/>
<line x1="1473.5" y1="501" x2="1473.5" y2="201" stroke="#F5F5F5"/>
<line x1="1430.57" y1="501" x2="1430.57" y2="201" stroke="#F5F5F5"/>
<line x1="1387.64" y1="501" x2="1387.64" y2="201" stroke="#F5F5F5"/>
<line x1="1344.71" y1="501" x2="1344.71" y2="201" stroke="#F5F5F5"/>
<line x1="1302.78" y1="501" x2="1302.78" y2="201" stroke="#F5F5F5"/>
<line x1="1259.86" y1="501" x2="1259.86" y2="201" stroke="#F5F5F5"/>
<line x1="1216.93" y1="501" x2="1216.93" y2="201" stroke="#F5F5F5"/>
<line x1="1131.07" y1="501" x2="1131.07" y2="201" stroke="#F5F5F5"/>
<line x1="1088.14" y1="501" x2="1088.14" y2="201" stroke="#F5F5F5"/>
<line x1="1045.21" y1="501" x2="1045.21" y2="201" stroke="#F5F5F5"/>
<line x1="1003.28" y1="501" x2="1003.28" y2="201" stroke="#F5F5F5"/>
<line x1="960.355" y1="501" x2="960.355" y2="201" stroke="#F5F5F5"/>
<line x1="917.427" y1="501" x2="917.427" y2="201" stroke="#F5F5F5"/>
<line x1="874.998" y1="243.5" x2="1474" y2="243.5" stroke="#F5F5F5"/>
<line x1="874.998" y1="415.5" x2="1471" y2="415.5" stroke="#F5F5F5"/>
<line x1="874.998" y1="458.5" x2="1474" y2="458.5" stroke="#F5F5F5"/>
<line x1="874.998" y1="500.5" x2="1474" y2="500.5" stroke="#F5F5F5"/>
<line x1="878.992" y1="200.5" x2="1474" y2="200.5" stroke="#F5F5F5"/>
<line x1="874.998" y1="372.5" x2="1471" y2="372.5" stroke="#F5F5F5"/>
<line x1="874.998" y1="329.5" x2="1474" y2="329.5" stroke="#F5F5F5"/>
<line x1="874.998" y1="286.5" x2="1471" y2="286.5" stroke="#F5F5F5"/>
<path d="M825.061 190.061C825.646 189.475 825.646 188.525 825.061 187.939L815.515 178.393C814.929 177.808 813.979 177.808 813.393 178.393C812.808 178.979 812.808 179.929 813.393 180.515L821.879 189L813.393 197.485C812.808 198.071 812.808 199.021 813.393 199.607C813.979 200.192 814.929 200.192 815.515 199.607L825.061 190.061ZM523.495 190.5H824V187.5H523.495V190.5Z" fill="#F2A900"/>
<path d="M227.939 187.939C227.354 188.525 227.354 189.475 227.939 190.061L237.485 199.607C238.071 200.192 239.021 200.192 239.607 199.607C240.192 199.021 240.192 198.071 239.607 197.485L231.121 189L239.607 180.515C240.192 179.929 240.192 178.979 239.607 178.393C239.021 177.808 238.071 177.808 237.485 178.393L227.939 187.939ZM529.505 187.5L229 187.5V190.5L529.505 190.5V187.5Z" fill="#F2A900"/>
<line x1="520" y1="92.5" x2="9.53956e-07" y2="92.5" stroke="#F2A900" stroke-width="3"/>
<path d="M211.939 497.061C212.525 497.646 213.475 497.646 214.061 497.061L223.607 487.515C224.192 486.929 224.192 485.979 223.607 485.393C223.021 484.808 222.071 484.808 221.485 485.393L213 493.879L204.515 485.393C203.929 484.808 202.979 484.808 202.393 485.393C201.808 485.979 201.808 486.929 202.393 487.515L211.939 497.061ZM211.5 347.01V496H214.5V347.01H211.5Z" fill="#F2A900"/>
<path d="M214.061 199.939C213.475 199.354 212.525 199.354 211.939 199.939L202.393 209.485C201.808 210.071 201.808 211.021 202.393 211.607C202.979 212.192 203.929 212.192 204.515 211.607L213 203.121L221.485 211.607C222.071 212.192 223.021 212.192 223.607 211.607C224.192 211.021 224.192 210.071 223.607 209.485L214.061 199.939ZM214.5 349.99V201H211.5V349.99H214.5Z" fill="#F2A900"/>
<line x1="148.5" y1="354" x2="148.5" y2="161" stroke="#F2A900" stroke-width="3"/>
<line x1="848.5" y1="214" x2="848.5" y2="21" stroke="#F2A900" stroke-width="3"/>
<path d="M875.061 215.061C875.646 214.475 875.646 213.525 875.061 212.939L865.515 203.393C864.929 202.808 863.979 202.808 863.393 203.393C862.808 203.979 862.808 204.929 863.393 205.515L871.879 214L863.393 222.485C862.808 223.071 862.808 224.021 863.393 224.607C863.979 225.192 864.929 225.192 865.515 224.607L875.061 215.061ZM844 215.5H874V212.5H844V215.5Z" fill="#F2A900"/>
<path d="M822.939 212.939C822.354 213.525 822.354 214.475 822.939 215.061L832.485 224.607C833.071 225.192 834.021 225.192 834.607 224.607C835.192 224.021 835.192 223.071 834.607 222.485L826.121 214L834.607 205.515C835.192 204.929 835.192 203.979 834.607 203.393C834.021 202.808 833.071 202.808 832.485 203.393L822.939 212.939ZM854 212.5H824V215.5H854V212.5Z" fill="#F2A900"/>
<line x1="238" y1="526.5" x2="75" y2="526.5" stroke="#F2A900" stroke-width="3"/>
<path d="M239.061 499.939C238.475 499.354 237.525 499.354 236.939 499.939L227.393 509.485C226.808 510.071 226.808 511.021 227.393 511.607C227.979 512.192 228.929 512.192 229.515 511.607L238 503.121L246.485 511.607C247.071 512.192 248.021 512.192 248.607 511.607C249.192 511.021 249.192 510.071 248.607 509.485L239.061 499.939ZM239.5 531V501H236.5V531H239.5Z" fill="#F2A900"/>
<path d="M236.939 552.061C237.525 552.646 238.475 552.646 239.061 552.061L248.607 542.515C249.192 541.929 249.192 540.979 248.607 540.393C248.021 539.808 247.071 539.808 246.485 540.393L238 548.879L229.515 540.393C228.929 539.808 227.979 539.808 227.393 540.393C226.808 540.979 226.808 541.929 227.393 542.515L236.939 552.061ZM236.5 521V551H239.5V521H236.5Z" fill="#F2A900"/>
<line x1="73.5" y1="525" x2="73.5" y2="231" stroke="#F2A900" stroke-width="3"/>
<line x1="213" y1="352.5" x2="150" y2="352.5" stroke="#F2A900" stroke-width="3"/>
<line x1="850" y1="22.5" x2="-1.1352e-08" y2="22.5" stroke="#F2A900" stroke-width="3"/>
<line x1="75" y1="232.5" x2="-3.72939e-07" y2="232.5" stroke="#F2A900" stroke-width="3"/>
<line x1="523.5" y1="189.031" x2="521.5" y2="91.0306" stroke="#F2A900" stroke-width="3"/>
<line y1="159.5" x2="150" y2="159.5" stroke="#F2A900" stroke-width="3"/>
</svg>
